<svg xmlns="http://www.w3.org/2000/svg" xmlns:xlink="http://www.w3.org/1999/xlink" fill="none" version="1.1" width="40" height="40" viewBox="0 0 40 40"><defs><clipPath id="master_svg0_122_322"><rect x="0" y="0" width="40" height="40" rx="0"/></clipPath></defs><g clip-path="url(#master_svg0_122_322)"><g><path d="M23.784725,3.671875C23.961525,3.671875,24.130125,3.7468361,24.248625,3.878125L33.667125,14.313775C33.770725,14.428675,33.828125,14.577875,33.828125,14.732575L33.828125,22.109375C33.828125,22.281975,33.688225,22.421875,33.515625,22.421875L31.015625,22.421875C30.843025,22.421875,30.703125,22.281975,30.703125,22.109375L30.703125,17.304675L22.500025,17.304675C21.809625,17.304675,21.250025,16.745075,21.250025,16.054675L21.250025,6.796875L9.453125,6.796875L9.453125,33.164075L18.554724999999998,33.164075C18.727325,33.164075,18.867224999999998,33.303975,18.867224999999998,33.476575L18.867224999999998,35.976575C18.867224999999998,36.149175,18.727325,36.289075,18.554724999999998,36.289075L7.578125,36.289075C6.887773,36.289075,6.328125,35.729375,6.328125,35.039075L6.328125,4.921875C6.328125,4.231524,6.887773,3.671875,7.578125,3.671875L23.784725,3.671875ZM29.780425,14.492175L24.062525,8.160625L24.062525,14.492175L29.780425,14.492175Z" fill="#FFFFFF" fill-opacity="1"/></g><g><path d="M28.250972265625002,34.49994453125L25.235472265625,31.48438453125L33.515772265625,31.48438453125C33.688372265625,31.48438453125,33.828272265625,31.34447453125,33.828272265625,31.17188453125L33.828272265625,28.67188453125C33.828272265625,28.49929453125,33.688372265625,28.35938453125,33.515772265625,28.35938453125L25.165972265625,28.35938453125L28.250972265625002,25.27438453125C28.373042265625,25.15235453125,28.373042265625,24.95445453125,28.250972265625002,24.83242453125L26.483242265625,23.06469423125C26.361212265625,22.94262693125,26.163322265625,22.94262693125,26.041292265625,23.06469423125L20.102694265625,29.00328453125C19.614531265625,29.49141453125,19.614531265625,30.28289453125,20.102694265625,30.77102453125L26.041292265625,36.70964453125C26.163322265625,36.83164453125,26.361212265625,36.83164453125,26.483242265625,36.70964453125L28.250972265625002,34.94184453125C28.373032265625,34.81984453125,28.373032265625,34.62194453125,28.250972265625002,34.49994453125Z" fill="#FFFFFF" fill-opacity="1"/></g></g></svg>