<svg xmlns="http://www.w3.org/2000/svg" xmlns:xlink="http://www.w3.org/1999/xlink" fill="none" version="1.1" width="41" height="41" viewBox="0 0 41 41"><defs><mask id="master_svg0_1_16430"><g style="mix-blend-mode:passthrough"><rect x="0.00048828125" y="0.041748046875" width="40" height="40" rx="0" fill="#FFFFFF" fill-opacity="1"/></g></mask><mask id="master_svg1_1_16443"><g style="mix-blend-mode:passthrough"><path d="M7.00048828125,33.041748046875L33.00048828125,33.041748046875L33.00048828125,20.041748046875L33.00048828125,7.041748046875L7.00048828125,7.041748046875L7.00048828125,33.041748046875Z" fill="#FFFFFF" fill-opacity="1"/></g></mask></defs><g style="mix-blend-mode:passthrough" mask="url(#master_svg0_1_16430)"><g style="mix-blend-mode:passthrough" mask="url(#master_svg1_1_16443)"></g><g style="mix-blend-mode:passthrough"><g style="mix-blend-mode:passthrough"><path d="M7.000488758087158,11.914728046875L7.000488758087158,28.438048046875Q7.492422758087158,28.311048046875,8.000488758087158,28.311048046875Q8.508558758087158,28.311048046875,9.000488758087158,28.438048046875L9.000488758087158,11.914728046875Q8.508558758087158,12.041748046875,8.000488758087158,12.041748046875Q7.492422758087158,12.041748046875,7.000488758087158,11.914728046875ZM11.873468758087158,9.041748046875Q12.000488758087158,8.549818046875,12.000488758087158,8.041748046875Q12.000488758087158,7.533681046875,11.873468758087158,7.041748046875L28.127488758087157,7.041748046875Q28.000488758087158,7.533681046875,28.000488758087158,8.041748046875Q28.000488758087158,8.549818046875,28.127488758087157,9.041748046875L11.873468758087158,9.041748046875ZM33.00048875808716,28.438048046875L33.00048875808716,11.914728046875Q32.50858875808716,12.041748046875,32.00048875808716,12.041748046875Q31.49238875808716,12.041748046875,31.000488758087158,11.914728046875L31.000488758087158,28.438048046875Q31.49238875808716,28.311048046875,32.00048875808716,28.311048046875Q32.50858875808716,28.311048046875,33.00048875808716,28.438048046875ZM12.000488758087158,32.311048046875Q12.000488758087158,31.659548046875,11.793758758087158,31.041748046875L28.20718875808716,31.041748046875Q28.000488758087158,31.659548046875,28.000488758087158,32.311048046875Q28.000488758087158,32.679448046874995,28.067788758087158,33.041748046875L11.933178758087159,33.041748046875Q12.000488758087158,32.679448046874995,12.000488758087158,32.311048046875Z" fill-rule="evenodd" fill="#FFFFFF" fill-opacity="1"/></g><g style="mix-blend-mode:passthrough" transform="matrix(-0.9999999403953552,0,0,1,72.00097632405226,0)"><ellipse cx="40.000489234924316" cy="8.041748046875" rx="4" ry="4" fill-opacity="0" stroke-opacity="1" stroke="#FFFFFF" fill="none" stroke-width="2"/></g><g style="mix-blend-mode:passthrough" transform="matrix(-0.9999999403953552,0,0,1,72.00097632405226,0)"><ellipse cx="40.000489234924316" cy="32.3109130859375" rx="4" ry="4" fill-opacity="0" stroke-opacity="1" stroke="#FFFFFF" fill="none" stroke-width="2"/></g><g style="mix-blend-mode:passthrough" transform="matrix(-0.9999999403953552,0,0,1,24.000977754563735,0)"><ellipse cx="16.000489234924316" cy="32.3109130859375" rx="4" ry="4" fill-opacity="0" stroke-opacity="1" stroke="#FFFFFF" fill="none" stroke-width="2"/></g><g style="mix-blend-mode:passthrough" transform="matrix(-0.9999999403953552,0,0,1,24.000976800889447,0)"><ellipse cx="16.000488758087158" cy="8.041748046875" rx="4" ry="4" fill-opacity="0" stroke-opacity="1" stroke="#FFFFFF" fill="none" stroke-width="2"/></g></g></g></svg>