<?xml version="1.0" standalone="no"?><!DOCTYPE svg PUBLIC "-//W3C//DTD SVG 1.1//EN" "http://www.w3.org/Graphics/SVG/1.1/DTD/svg11.dtd"><svg t="1672994800624" class="icon" viewBox="0 0 1024 1024" version="1.1" xmlns="http://www.w3.org/2000/svg" p-id="9049" xmlns:xlink="http://www.w3.org/1999/xlink" width="200" height="200"><path d="M348.16 921.6c-17.92 0-32.256-14.336-32.256-32.256s14.336-32.256 32.256-32.256h257.024c199.168 0 251.904-163.84 251.904-250.368 0-93.696-32.768-251.392-250.88-251.392H211.456l149.504 149.504c6.144 6.144 9.216 14.336 9.216 22.528 0 8.704-3.584 16.896-9.216 22.528-6.144 6.144-14.336 9.216-22.528 9.216-8.704 0-16.896-3.584-23.04-9.216L112.128 346.624a32.768 32.768 0 0 1 0-45.568l189.44-189.44c6.144-6.144 14.336-9.216 22.528-9.216 8.704 0 16.896 3.584 23.04 9.216a32.768 32.768 0 0 1 0 45.568L212.992 291.328h393.216c115.712 0 201.728 37.888 256 112.128 49.152 67.072 59.392 147.968 59.392 203.776 0 126.464-83.968 314.88-315.904 314.88H348.16z" fill="#2C2C2C" p-id="9050"></path></svg>